<svg xmlns="http://www.w3.org/2000/svg" version="1.1" xmlns:xlink="http://www.w3.org/1999/xlink" xmlns:svgjs="http://svgjs.dev/svgjs" width="1000" height="1000"><g clip-path="url(#SvgjsClipPath1048)"><rect width="1000" height="1000" fill="#ffffff"></rect><g transform="matrix(11.25,0,0,11.25,50,50)"><svg xmlns="http://www.w3.org/2000/svg" version="1.1" xmlns:xlink="http://www.w3.org/1999/xlink" xmlns:svgjs="http://svgjs.dev/svgjs" width="80" height="80"><svg version="1.1" xmlns="http://www.w3.org/2000/svg" width="80" height="80">
<path d="M0 0 C17.82 0 35.64 0 54 0 C54 8.25 54 16.5 54 25 C54.66 25 55.32 25 56 25 C56 28.96 56 32.92 56 37 C55.34 37 54.68 37 54 37 C54 45.25 54 53.5 54 62 C36.18 62 18.36 62 0 62 C0 41.54 0 21.08 0 0 Z M3 2 C1.29434382 3.70565618 1.87247945 5.90733495 1.87060547 8.23828125 C1.86745331 9.35614014 1.86430115 10.47399902 1.86105347 11.62573242 C1.8630777 12.84236572 1.86510193 14.05899902 1.8671875 15.3125 C1.86623077 16.55169189 1.86527405 17.79088379 1.86428833 19.06762695 C1.86360626 21.69388281 1.86496462 24.32004633 1.86962891 26.94628906 C1.87532619 30.31928714 1.87204698 33.69220565 1.86605644 37.06520081 C1.8615823 40.27263677 1.86471118 43.480063 1.8671875 46.6875 C1.86516327 47.9041333 1.86313904 49.1207666 1.86105347 50.37426758 C1.86420563 51.49212646 1.86735779 52.60998535 1.87060547 53.76171875 C1.87140106 54.75131592 1.87219666 55.74091309 1.87301636 56.76049805 C1.74899152 58.9709725 1.74899152 58.9709725 3 60 C4.65 60 6.3 60 8 60 C8 40.86 8 21.72 8 2 C6.35 2 4.7 2 3 2 Z M10 2 C10 21.14 10 40.28 10 60 C19.9 60 29.8 60 40 60 C40 52.41 40 44.82 40 37 C37.69 36.34 35.38 35.68 33 35 C33 32.36 33 29.72 33 27 C35.31 26.34 37.62 25.68 40 25 C40 17.41 40 9.82 40 2 C30.1 2 20.2 2 10 2 Z M42 2 C42 9.59 42 17.18 42 25 C45.3 25 48.6 25 52 25 C52.02682987 21.35411831 52.04675569 17.70843154 52.0625 14.0625 C52.07087891 13.02158203 52.07925781 11.98066406 52.08789062 10.90820312 C52.09111328 9.91884766 52.09433594 8.92949219 52.09765625 7.91015625 C52.10289307 6.99371338 52.10812988 6.07727051 52.11352539 5.13305664 C52.23921211 3.01636977 52.23921211 3.01636977 51 2 C48.03 2 45.06 2 42 2 Z M35 29 C35.34444881 31.47266765 35.34444881 31.47266765 36 34 C39.18824568 35.59412284 42.62896662 35.10174735 46.125 35.0625 C47.25615234 35.05573242 47.25615234 35.05573242 48.41015625 35.04882812 C50.27347127 35.03703499 52.13674555 35.01909942 54 35 C54 32.36 54 29.72 54 27 C51.39555652 26.94605295 48.79223002 26.90635531 46.1875 26.875 C45.08051758 26.84986328 45.08051758 26.84986328 43.95117188 26.82421875 C40.08753574 26.78925372 38.29096332 26.80602445 35 29 Z M42 37 C42 44.59 42 52.18 42 60 C44.97 60 47.94 60 51 60 C52.23921211 58.98363023 52.23921211 58.98363023 52.11352539 56.86694336 C52.10828857 55.95050049 52.10305176 55.03405762 52.09765625 54.08984375 C52.09443359 53.10048828 52.09121094 52.11113281 52.08789062 51.09179688 C52.07951172 50.05087891 52.07113281 49.00996094 52.0625 47.9375 C52.05798828 46.89271484 52.05347656 45.84792969 52.04882812 44.77148438 C52.03699927 42.18096546 52.01906319 39.59047578 52 37 C48.7 37 45.4 37 42 37 Z " fill="#000000" transform="translate(13,9)"></path>
<path d="M0 0 C0.66 0 1.32 0 2 0 C2 0.66 2 1.32 2 2 C1.34 2 0.68 2 0 2 C0 1.34 0 0.68 0 0 Z " fill="#000000" transform="translate(61,65)"></path>
<path d="M0 0 C0.66 0 1.32 0 2 0 C2 0.66 2 1.32 2 2 C1.34 2 0.68 2 0 2 C0 1.34 0 0.68 0 0 Z " fill="#000000" transform="translate(57,65)"></path>
<path d="M0 0 C0.66 0 1.32 0 2 0 C2 0.66 2 1.32 2 2 C1.34 2 0.68 2 0 2 C0 1.34 0 0.68 0 0 Z " fill="#000000" transform="translate(49,65)"></path>
<path d="M0 0 C0.66 0 1.32 0 2 0 C2 0.66 2 1.32 2 2 C1.34 2 0.68 2 0 2 C0 1.34 0 0.68 0 0 Z " fill="#000000" transform="translate(45,65)"></path>
<path d="M0 0 C0.66 0 1.32 0 2 0 C2 0.66 2 1.32 2 2 C1.34 2 0.68 2 0 2 C0 1.34 0 0.68 0 0 Z " fill="#000000" transform="translate(41,65)"></path>
<path d="M0 0 C0.66 0 1.32 0 2 0 C2 0.66 2 1.32 2 2 C1.34 2 0.68 2 0 2 C0 1.34 0 0.68 0 0 Z " fill="#000000" transform="translate(37,65)"></path>
<path d="M0 0 C0.66 0 1.32 0 2 0 C2 0.66 2 1.32 2 2 C1.34 2 0.68 2 0 2 C0 1.34 0 0.68 0 0 Z " fill="#000000" transform="translate(33,65)"></path>
<path d="M0 0 C0.66 0 1.32 0 2 0 C2 0.66 2 1.32 2 2 C1.34 2 0.68 2 0 2 C0 1.34 0 0.68 0 0 Z " fill="#000000" transform="translate(29,65)"></path>
<path d="M0 0 C0.66 0 1.32 0 2 0 C2 0.66 2 1.32 2 2 C1.34 2 0.68 2 0 2 C0 1.34 0 0.68 0 0 Z " fill="#000000" transform="translate(25,65)"></path>
<path d="M0 0 C0.66 0 1.32 0 2 0 C2 0.66 2 1.32 2 2 C1.34 2 0.68 2 0 2 C0 1.34 0 0.68 0 0 Z " fill="#000000" transform="translate(61,61)"></path>
<path d="M0 0 C0.66 0 1.32 0 2 0 C2 0.66 2 1.32 2 2 C1.34 2 0.68 2 0 2 C0 1.34 0 0.68 0 0 Z " fill="#000000" transform="translate(61,57)"></path>
<path d="M0 0 C0.66 0 1.32 0 2 0 C2 0.66 2 1.32 2 2 C1.34 2 0.68 2 0 2 C0 1.34 0 0.68 0 0 Z " fill="#000000" transform="translate(61,53)"></path>
<path d="M0 0 C0.66 0 1.32 0 2 0 C2 0.66 2 1.32 2 2 C1.34 2 0.68 2 0 2 C0 1.34 0 0.68 0 0 Z " fill="#000000" transform="translate(61,49)"></path>
<path d="M0 0 C0.66 0 1.32 0 2 0 C2 0.66 2 1.32 2 2 C1.34 2 0.68 2 0 2 C0 1.34 0 0.68 0 0 Z " fill="#000000" transform="translate(61,29)"></path>
<path d="M0 0 C0.66 0 1.32 0 2 0 C2 0.66 2 1.32 2 2 C1.34 2 0.68 2 0 2 C0 1.34 0 0.68 0 0 Z " fill="#000000" transform="translate(61,25)"></path>
<path d="M0 0 C0.66 0 1.32 0 2 0 C2 0.66 2 1.32 2 2 C1.34 2 0.68 2 0 2 C0 1.34 0 0.68 0 0 Z " fill="#000000" transform="translate(61,21)"></path>
<path d="M0 0 C0.66 0 1.32 0 2 0 C2 0.66 2 1.32 2 2 C1.34 2 0.68 2 0 2 C0 1.34 0 0.68 0 0 Z " fill="#000000" transform="translate(61,17)"></path>
<path d="M0 0 C0.66 0 1.32 0 2 0 C2 0.66 2 1.32 2 2 C1.34 2 0.68 2 0 2 C0 1.34 0 0.68 0 0 Z " fill="#000000" transform="translate(61,13)"></path>
<path d="M0 0 C0.66 0 1.32 0 2 0 C2 0.66 2 1.32 2 2 C1.34 2 0.68 2 0 2 C0 1.34 0 0.68 0 0 Z " fill="#000000" transform="translate(57,13)"></path>
<path d="M0 0 C0.66 0 1.32 0 2 0 C2 0.66 2 1.32 2 2 C1.34 2 0.68 2 0 2 C0 1.34 0 0.68 0 0 Z " fill="#000000" transform="translate(49,13)"></path>
<path d="M0 0 C0.66 0 1.32 0 2 0 C2 0.66 2 1.32 2 2 C1.34 2 0.68 2 0 2 C0 1.34 0 0.68 0 0 Z " fill="#000000" transform="translate(45,13)"></path>
<path d="M0 0 C0.66 0 1.32 0 2 0 C2 0.66 2 1.32 2 2 C1.34 2 0.68 2 0 2 C0 1.34 0 0.68 0 0 Z " fill="#000000" transform="translate(41,13)"></path>
<path d="M0 0 C0.66 0 1.32 0 2 0 C2 0.66 2 1.32 2 2 C1.34 2 0.68 2 0 2 C0 1.34 0 0.68 0 0 Z " fill="#000000" transform="translate(37,13)"></path>
<path d="M0 0 C0.66 0 1.32 0 2 0 C2 0.66 2 1.32 2 2 C1.34 2 0.68 2 0 2 C0 1.34 0 0.68 0 0 Z " fill="#000000" transform="translate(33,13)"></path>
<path d="M0 0 C0.66 0 1.32 0 2 0 C2 0.66 2 1.32 2 2 C1.34 2 0.68 2 0 2 C0 1.34 0 0.68 0 0 Z " fill="#000000" transform="translate(29,13)"></path>
<path d="M0 0 C0.66 0 1.32 0 2 0 C2 0.66 2 1.32 2 2 C1.34 2 0.68 2 0 2 C0 1.34 0 0.68 0 0 Z " fill="#000000" transform="translate(25,13)"></path>
</svg></svg></g></g><defs><clipPath id="SvgjsClipPath1048"><rect width="1000" height="1000" x="0" y="0" rx="0" ry="0"></rect></clipPath></defs></svg>